<?xml version="1.0" encoding="utf-8"?>
<!-- Generator: Adobe Illustrator 19.0.0, SVG Export Plug-In . SVG Version: 6.00 Build 0)  -->
<svg version="1.1" id="Capa_1" xmlns="http://www.w3.org/2000/svg" xmlns:xlink="http://www.w3.org/1999/xlink" x="0px" y="0px"
	 viewBox="5 -45.8 210 121" style="enable-background:new 5 -45.8 210 121;" xml:space="preserve">
<style type="text/css">
	.st0{fill:#FFFFFF;}
</style>
<rect id="XMLID_44_" x="34.5" y="-24" class="st0" width="4.4" height="21.5"/>
<polygon id="XMLID_43_" class="st0" points="100.8,-19.5 100.8,-24 85.3,-24 85.3,-19.5 90.8,-19.5 90.8,6.4 95.2,6.4 95.2,-19.5 
	"/>
<rect id="XMLID_42_" x="105.2" y="-24" class="st0" width="4.4" height="21.5"/>
<path id="XMLID_39_" class="st0" d="M152.1-1.3V-24h-4.3v22.9c0,1.6-0.4,5.3-4.2,5.3c-3.9,0-4.2-4.1-4.2-5.4V-24H135v23
	c0,5.8,3.5,9.9,8.5,9.9c0.3,0,0.6,0,0.9,0l-6.9,30h4.6l1.7-8.5h6.4l1.8,8.5h4.8l-7.4-32.3C151.1,4.7,152.1,2,152.1-1.3 M144.8,25.8
	l1.1-5.3c0.3-1.7,0.8-4.4,1.1-6h0.2c0.3,1.6,0.8,4.3,1.1,6l1.1,5.3H144.8z"/>
<polygon id="XMLID_38_" class="st0" points="171,-24 155.5,-24 155.5,-19.5 161,-19.5 161,8.6 165.4,8.6 165.4,-19.5 171,-19.5 "/>
<path id="XMLID_35_" class="st0" d="M65.4,23.9c3.1-1.4,4.6-4.2,4.6-8.5c0-5.5-3-8.8-8-9V-24h-4.3v14.2c0,1.2,0,3.8,0.1,5.4h-0.2
	l-0.4-0.9c-0.5-1.2-1-2.6-1.4-3.4l-6.5-15.4H45V6.3H34.5v32.4h4.4V24.1h6.5v-4.5h-6.5v-8.7h10.4V8.3v-2V-7.9c0-1.2,0-3.8-0.1-5.4
	h0.2l0.4,0.9c0.5,1.2,1,2.6,1.4,3.4l6.4,15.4H53v32.4h4.4v-14l3.4,0.1l4.5,14h4.9L65.4,23.9L65.4,23.9z M61.2,20.2h-3.9v-9.3h3.9
	c2.8,0,4.3,1.6,4.3,4.6C65.5,18.7,64,20.2,61.2,20.2"/>
<path id="XMLID_32_" class="st0" d="M80.4,6.4c1.6-1.6,2.7-3.9,2.7-6.5c0-5.2-3.7-7.9-7.4-10.5c-3.4-2.3-4.4-3.3-4.4-5.6
	c0-2,1.5-3.7,3.4-3.7c1.6,0,3,1,3.9,2.5l3.3-2.8c-1.5-2.8-4.1-4.4-7.2-4.4c-4.7,0-8,4.1-8,8.5c0,5.2,2.8,7.1,6.2,9.5
	c4,2.8,5.5,4.1,5.5,6.6c0,2.1-1.6,4.1-3.9,4.1c-1.6,0-2.8-1-4.7-3.5l-3.4,3c2,3.5,4.7,5.3,8.2,5.3c1.9,0,3.7-0.7,5.2-1.9l-7.3,31.8
	H77l1.7-8.5h6.4l1.8,8.5h4.8L84.3,6.4L80.4,6.4L80.4,6.4z M79.7,25.8l1.1-5.3c0.3-1.7,0.8-4.4,1.1-6h0.2c0.3,1.6,0.8,4.3,1.1,6
	l1.1,5.3H79.7z"/>
<path id="XMLID_31_" class="st0" d="M108,20.6c0,1.2,0,3.8,0.1,5.4l-0.2,0.1l-0.4-0.9c-0.5-1.2-1-2.6-1.4-3.4L99.6,6.4h-4.4v32.4
	h4.3V22.6c0-1.2,0-3.8-0.1-5.4l0.2-0.1L100,18c0.5,1.2,1,2.6,1.4,3.4l7.2,17.3h3.6V6.4H108V20.6z"/>
<rect id="XMLID_30_" x="161" y="17" class="st0" width="4.4" height="21.8"/>
<path id="XMLID_29_" class="st0" d="M179.2,19.8c-3.4-2.3-4.4-3.3-4.4-5.6c0-2,1.5-3.7,3.4-3.7c1.6,0,3,1,3.9,2.5l3.3-2.8
	c-1.5-2.8-4.1-4.4-7.2-4.4c-4.7,0-8,4.1-8,8.5c0,5.2,2.8,7.1,6.2,9.5c4,2.8,5.1,4,5.1,6.5c0,2.1-1.6,4.1-3.9,4.1
	c-1.7,0-2.8-1-4.7-3.5l-3.4,3c2,3.5,4.7,5.2,8.2,5.2c4.5,0,8.5-4,8.5-9C186.2,25,182.9,22.4,179.2,19.8"/>
<path id="XMLID_28_" class="st0" d="M130.1,29.7c-0.9,3.6-1.8,4.9-3.7,4.9c-4.4,0-4.8-9.2-4.8-12c0-4.5,0.6-11.9,4.5-11.9
	c2.3,0,3.1,1.6,3.6,4.4v0.1l4.4-1.2v-0.1c-0.9-5.3-3.4-7.9-7.9-7.9c-0.6,0-1.1,0.1-1.6,0.2v-25.7h5.6v-4.6h-15.5v4.6h5.6V9.1
	c-2,2.8-3.1,7.4-3.1,13.5c0,8.9,2.2,14.6,6.3,16.2l-1.4,6.7h4.3l1.2-6.3c3.6-0.5,5.7-3.1,6.7-8.1V31L130.1,29.7L130.1,29.7z"/>
<g id="XMLID_3_">
	<path id="XMLID_25_" class="st0" d="M40.5,55.5h-4.3L35,58.7h-1.1l3.8-10.2H39l3.9,10.2h-1.2L40.5,55.5z M38.3,49.7l-1.8,4.8h3.6
		L38.3,49.7z"/>
	<path id="XMLID_23_" class="st0" d="M44,58.7v-6.8h1v2l0.6-1.6c0.4-0.6,1.2-0.6,2.1-0.5v1C46.2,52.6,45.3,53,45,55v3.7
		C45,58.7,44,58.7,44,58.7z"/>
	<path id="XMLID_19_" class="st0" d="M52,62.2c-2,0-3.1-0.6-3.1-1.8c0-0.4,0.1-0.7,0.3-0.9l1.1-0.6c-1-0.1-1.4-0.7-1.4-1.3
		c0-0.7,0.5-1.2,1.5-1.4c-0.8-0.4-1.2-1.1-1.2-2c0-1.2,0.9-2.4,2.6-2.4c1.1,0,2,0.6,2.3,1.4l0.2-1c0.4-0.4,0.8-0.5,1.3-0.4v0.9
		c-0.1,0-0.1,0-0.2,0c-0.5,0-0.9,0.2-1.2,0.8c0.1,0.2,0.1,0.5,0.1,0.7c0,1.3-1,2.3-2.6,2.3c-0.4,0-0.7-0.1-1-0.1
		c-0.7,0.1-1,0.5-1,0.9c0,0.5,0.3,0.8,1.2,0.8h2.2c1.7,0,2.3,0.8,2.3,1.9C55.4,61.3,54.4,62.2,52,62.2z M52.2,61.4
		c1.5,0,2.3-0.5,2.3-1.3c0-0.7-0.4-1.2-1.4-1.2h-2.4c-0.7,0.2-1,0.6-1,1.1c0,0.9,0.7,1.3,2.1,1.3L52.2,61.4L52.2,61.4z M51.8,55.7
		c0.9,0,1.6-0.6,1.6-1.6s-0.7-1.6-1.6-1.6c-0.9,0-1.6,0.7-1.6,1.6C50.2,55.1,50.9,55.7,51.8,55.7z"/>
	<path id="XMLID_16_" class="st0" d="M59.7,58.8c-2.1,0-3.3-1.5-3.3-3.5c0-2.1,1.3-3.6,3.2-3.6c2,0,3.1,1.3,3.2,3.4h-5.2v0.2
		c0,1.7,0.7,2.7,2.1,2.7c1.4,0,1.9-0.9,2-2.1h1.1C62.8,57.3,61.8,58.8,59.7,58.8z M57.7,54.7h4c0-1.1-0.5-2.2-2-2.2
		C58.6,52.5,57.9,53.2,57.7,54.7z"/>
	<path id="XMLID_14_" class="st0" d="M64.5,58.7v-6.8h1V54c0.2-1.4,1.1-2.2,2.4-2.2s2.2,0.8,2.2,2.4v4.5h-1v-4.2
		c0-1.2-0.5-1.9-1.6-1.9c-1.3,0-2,1.1-2,2.1v4H64.5z"/>
	<path id="XMLID_12_" class="st0" d="M72.7,52.7h-1.2v-0.8h1.2v-1.7h1v1.7h1.6v0.8h-1.6V57c0,0.5,0.3,0.8,0.7,0.8h0.8v0.9H74
		c-0.8,0-1.3-0.4-1.3-1.3V52.7z"/>
	<path id="XMLID_9_" class="st0" d="M76.8,50.1v-1.2H78v1.2H76.8z M76.9,58.7v-6.8h1v6.8H76.9z"/>
	<path id="XMLID_7_" class="st0" d="M80,58.7v-6.8h1V54c0.2-1.4,1.1-2.2,2.4-2.2s2.2,0.8,2.2,2.4v4.5h-1v-4.2c0-1.2-0.5-1.9-1.6-1.9
		c-1.3,0-2,1.1-2,2.1v4H80z"/>
	<path id="XMLID_4_" class="st0" d="M90.5,58.8c-2.1,0-3.3-1.5-3.3-3.5c0-2.1,1.3-3.6,3.2-3.6c2,0,3.1,1.3,3.2,3.4h-5.2v0.2
		c0,1.7,0.7,2.7,2.1,2.7s1.9-0.9,2-2.1h1.1C93.5,57.3,92.5,58.8,90.5,58.8z M88.4,54.7h4c0-1.1-0.5-2.2-2-2.2
		C89.3,52.5,88.6,53.2,88.4,54.7z"/>
</g>
</svg>
